# xmcd
#
# Track frame offsets: 
#        150
#        15945
#        33455
#        45377
#        59502
#        73702
#        86222
#        107702
#        123667
#        139237
#        154362
#        169512
#        186450
#        200435
#        217400
#        231105
#        245030
#        257557
#        272747
#        283182
#        300570
#        314765
#
# Disc length: 4437 seconds
#
# Revision: 0
# Processed by: cddbd v1.5.2PL0 Copyright (c) Steve Scherf et al.
# Submitted via: ExactAudioCopy v0.95b4
#
DISCID=57115316
DTITLE=Various Artist - EMI Music Publishing Country Hits [CD4: 1982-1989)
DYEAR=1994
DGENRE=Country
TTITLE0=Williw Nelson - Always On My Mind
TTITLE1=Eddie Rabbit and Crystal Gayle - You And I
TTITLE2=The Oak Ridge Boys - American Made
TTITLE3=The Judds - Had A Dream (For The Heart)
TTITLE4=Earl Thomas Conley - Holding Her And Loving You
TTITLE5=Guy Clark - Homegrown Tomatoes
TTITLE6=Willie Nelson and Merle Haggard - Poncho and Lefty
TTITLE7=Julio Iglesias and Willie Nelson - To All The Girls I've Loved B
TTITLE7=efore
TTITLE8=Holly Dunn - Daddy's Hands
TTITLE9=John Anderson - Down In Tennessee
TTITLE10=Earl Thomas Colney - Nobody Falls Like A Fool
TTITLE11=Kenny Rogers and Dolly Parton - Real Love
TTITLE12=Reba McEntire - Little Rock
TTITLE13=Steve Wariner - The Weekend
TTITLE14=Highway 101 - Whiskey, If You Were A Woman
TTITLE15=Kathy Mattea - You're The Power
TTITLE16=K.D. Lang - Down To My Last Cigarette
TTITLE17=Kathy Mattea - Eighteen Wheels And A Dozen Roses
TTITLE18=George Strait - If You Ain't Lovin' (You Ain't Livin')
TTITLE19=Earl Thomas Conley - What I'd Say
TTITLE20=Kathy Mattea - Come From The Heart
TTITLE21=Shenandoah - Sunday In The South
EXTD=
EXTT0=
EXTT1=
EXTT2=
EXTT3=
EXTT4=
EXTT5=
EXTT6=
EXTT7=
EXTT8=
EXTT9=
EXTT10=
EXTT11=
EXTT12=
EXTT13=
EXTT14=
EXTT15=
EXTT16=
EXTT17=
EXTT18=
EXTT19=
EXTT20=
EXTT21=
PLAYORDER=
